<?xml version="1.0" encoding="UTF-8"?>
<svg id="Logo" xmlns="http://www.w3.org/2000/svg" viewBox="0 0 1040.25 772.66">
  <defs>
    <style>
      .cls-1 {
        fill: #cb001b;
      }

      .cls-2 {
        fill: #151316;
      }
    </style>
  </defs>
  <path class="cls-1" d="M396.45,76.95l24.37,90.93c2.86,10.67-3.47,21.64-14.14,24.49l-159.38,42.71c-5.72-21.34,6.95-43.27,28.28-48.99l91.76-24.59c5.33-1.43,8.5-6.91,7.07-12.25l-8.84-32.98c-1.43-5.33-6.91-8.5-12.25-7.07l-120.74,32.35c-5.33,1.43-8.5,6.91-7.07,12.25l45.29,169.04-38.64,10.35-53.06-198.01c-2.86-10.67,3.47-21.64,14.14-24.49l178.7-47.88c10.67-2.86,21.64,3.47,24.49,14.14Z"/>
  <path class="cls-2" d="M664.94,151.59c2.06,7.7.98,15.9-3.02,22.8l-52.09,89.91c-3.98,6.89-10.54,11.91-18.21,13.97l-368.41,98.74c-10.67,2.86-21.63-3.47-24.49-14.14l-14.94-55.75c-2.93-10.92-12.83-18.53-24.15-18.53H20c-11.05,0-20-8.95-20-20v-87.3c0-11.32,7.6-21.22,18.53-24.15l136-36.44.09.35c10.67-2.86,21.63,3.47,24.49,14.14l53.06,198.01,339.09-90.86c3.84-1.03,7.11-3.54,9.1-6.98l41.7-72.23c1.99-3.45,2.53-7.54,1.5-11.38l-28.83-107.59,38.64-10.35,31.56,117.79Z"/>
  <path class="cls-1" d="M1040.25,40.77v20c0,5.52-4.48,10-10,10h-163.17c-4.37,0-8.72.57-12.94,1.7l-365.36,97.9c-5.33,1.43-8.5,6.91-7.07,12.25l20.93,78.1-38.64,10.36-53.06-198.02c-2.86-10.67,3.48-21.64,14.14-24.49L603.78.68c10.67-2.85,21.64,3.48,24.5,14.15l5.17,19.31-169.03,45.3c-5.34,1.43-8.51,6.91-7.08,12.25l8.84,32.97c1.43,5.34,6.91,8.5,12.25,7.07l364.08-97.55c8.44-2.26,17.14-3.41,25.88-3.41h161.86c5.52,0,10,4.48,10,10Z"/>
  <path class="cls-2" d="M1040.25,120.53c0,11.05-8.95,20-20,20-11.05,0-20-8.95-20-20,0-11.05,20-35,20-35,0,0,20,23.95,20,35Z"/>
  <rect class="cls-2" x="1000.25" y="155.53" width="40" height="177" rx="10" ry="10"/>
</svg>