<?xml version="1.0" encoding="UTF-8"?>
<svg id="Acronym" xmlns="http://www.w3.org/2000/svg" viewBox="0 0 1040.25 772.66">
  <defs>
    <style>
      .cls-1 {
        fill: #cb001b;
      }
    </style>
  </defs>
  <g>
    <path class="cls-1" d="M752.86,596.45v126.21c0,5.52,4.48,10,10,10h72.5c5.52,0,10,4.48,10,10v10c0,11.05-8.95,20-20,20h-185c-11.05,0-20-8.95-20-20v-10c0-5.52,4.48-10,10-10h72.5c5.52,0,10-4.48,10-10v-126.21c0-5.52-4.48-10-10-10h-72.5c-5.52,0-10-4.47-10-10v-10c0-11.04,8.95-20,20-20h185c11.05,0,20,8.96,20,20v10c0,5.53-4.48,10-10,10h-72.5c-5.52,0-10,4.48-10,10Z"/>
    <path class="cls-1" d="M420.36,596.45v32.5c0,5.52,4.48,10,10,10h165c5.52,0,10,4.48,10,10v20c0,5.52-4.48,10-10,10h-165c-5.52,0-10,4.48-10,10v72.5c0,5.52-4.48,10-10,10h-10c-11.05,0-20-8.95-20-20v-185c0-11.05,8.95-20,20-20h185c11.05,0,20,8.95,20,20v10c0,5.52-4.48,10-10,10h-165c-5.52,0-10,4.48-10,10Z"/>
    <path class="cls-1" d="M365.36,566.45v94.14c0,11.05-8.95,20-20,20h-165c0-22.09,17.91-40,40-40h95c5.52,0,10-4.48,10-10v-34.14c0-5.52-4.48-10-10-10h-125c-5.52,0-10,4.48-10,10v165c0,5.52-4.48,10-10,10h-10c-11.05,0-20-8.95-20-20v-185c0-11.05,8.95-20,20-20h185c11.05,0,20,8.95,20,20Z"/>
  </g>
  <g>
    <path class="cls-1" d="M752.86,596.45v126.21c0,5.52,4.48,10,10,10h72.5c5.52,0,10,4.48,10,10v10c0,11.05-8.95,20-20,20h-185c-11.05,0-20-8.95-20-20v-10c0-5.52,4.48-10,10-10h72.5c5.52,0,10-4.48,10-10v-126.21c0-5.52-4.48-10-10-10h-72.5c-5.52,0-10-4.47-10-10v-10c0-11.04,8.95-20,20-20h185c11.05,0,20,8.96,20,20v10c0,5.53-4.48,10-10,10h-72.5c-5.52,0-10,4.48-10,10Z"/>
    <path class="cls-1" d="M420.36,596.45v32.5c0,5.52,4.48,10,10,10h165c5.52,0,10,4.48,10,10v20c0,5.52-4.48,10-10,10h-165c-5.52,0-10,4.48-10,10v72.5c0,5.52-4.48,10-10,10h-10c-11.05,0-20-8.95-20-20v-185c0-11.05,8.95-20,20-20h185c11.05,0,20,8.95,20,20v10c0,5.52-4.48,10-10,10h-165c-5.52,0-10,4.48-10,10Z"/>
    <path class="cls-1" d="M365.36,566.45v94.14c0,11.05-8.95,20-20,20h-165c0-22.09,17.91-40,40-40h95c5.52,0,10-4.48,10-10v-34.14c0-5.52-4.48-10-10-10h-125c-5.52,0-10,4.48-10,10v165c0,5.52-4.48,10-10,10h-10c-11.05,0-20-8.95-20-20v-185c0-11.05,8.95-20,20-20h185c11.05,0,20,8.95,20,20Z"/>
  </g>
</svg>